<?xml version="1.0" encoding="UTF-8"?>
<svg viewBox="0 0 908.80707 711.80286" xmlns="http://www.w3.org/2000/svg">
 <defs>
  <clipPath id="a">
   <path transform="matrix(1.5603 0 0 2.9546 240.17 -967.93)" d="m-305.71 558.08a135.71 62.857 0 1 1 -271.43 0 135.71 62.857 0 1 1 271.43 0z"/>
  </clipPath>
  <clipPath id="g">
   <path transform="matrix(1.5603 0 0 2.9546 1037.3 -1046.8)" d="m-305.71 558.08a135.71 62.857 0 1 1 -271.43 0 135.71 62.857 0 1 1 271.43 0z"/>
  </clipPath>
  <filter id="e">
   <feGaussianBlur stdDeviation="13.28241"/>
  </filter>
  <filter id="f" x="-.27944" y="-.52577" width="1.5589" height="2.0515">
   <feGaussianBlur stdDeviation="30.17997"/>
  </filter>
  <filter id="d" x="-.17423" y="-.35194" width="1.3485" height="1.7039">
   <feGaussianBlur stdDeviation="19.20687"/>
  </filter>
  <filter id="c" x="-.51232" y="-.51356" width="2.0246" height="2.0271">
   <feGaussianBlur stdDeviation="43.31633"/>
  </filter>
  <linearGradient id="b" x1="-432.14" x2="-427.86" y1="475.22" y2="632.36" gradientUnits="userSpaceOnUse">
   <stop stop-color="#4fbaff" offset="0"/>
   <stop stop-color="#4fbaff" stop-opacity="0" offset="1"/>
  </linearGradient>
 </defs>
 <path transform="matrix(.77891 -.37544 .39458 .8393 -212.04 -199.44)" d="m551.43 606.65c0 108.88-88.264 197.14-197.14 197.14s-197.14-88.264-197.14-197.14 88.264-197.14 197.14-197.14 197.14 88.264 197.14 197.14z" clip-path="url(#g)" fill="none" filter="url(#e)" stroke="#4fbbff" stroke-width="30"/>
 <path transform="matrix(1.0124 -.44374 .83586 1.6169 268.04 -982.41)" d="m-305.71 558.08c0 34.715-60.761 62.857-135.71 62.857s-135.71-28.142-135.71-62.857 60.761-62.857 135.71-62.857 135.71 28.142 135.71 62.857z" clip-path="url(#a)" fill="url(#b)" filter="url(#d)"/>
 <path transform="matrix(.14681 -.16836 .24146 .21056 142.07 -95.088)" d="m-305.71 558.08c0 34.715-60.761 62.857-135.71 62.857s-135.71-28.142-135.71-62.857 60.761-62.857 135.71-62.857 135.71 28.142 135.71 62.857z" clip-path="url(#a)" fill="#fff" filter="url(#f)"/>
 <path transform="matrix(.05145 .07185 -.06434 .11817 277.45 53.478)" d="m-305.71 558.08c0 34.715-60.761 62.857-135.71 62.857s-135.71-28.142-135.71-62.857 60.761-62.857 135.71-62.857 135.71 28.142 135.71 62.857z" clip-path="url(#a)" fill="#fff" filter="url(#c)"/>
 <path transform="matrix(.77891 -.37544 .39458 .8393 -328.55 88.757)" d="m551.43 606.65c0 108.88-88.264 197.14-197.14 197.14s-197.14-88.264-197.14-197.14 88.264-197.14 197.14-197.14 197.14 88.264 197.14 197.14z" clip-path="url(#g)" fill="none" filter="url(#e)" stroke="#4fbbff" stroke-width="30"/>
 <path transform="matrix(1.0124 -.44374 .83586 1.6169 151.53 -694.21)" d="m-305.71 558.08c0 34.715-60.761 62.857-135.71 62.857s-135.71-28.142-135.71-62.857 60.761-62.857 135.71-62.857 135.71 28.142 135.71 62.857z" clip-path="url(#a)" fill="url(#b)" filter="url(#d)"/>
 <path transform="matrix(.14681 -.16836 .24146 .21056 25.562 193.11)" d="m-305.71 558.08c0 34.715-60.761 62.857-135.71 62.857s-135.71-28.142-135.71-62.857 60.761-62.857 135.71-62.857 135.71 28.142 135.71 62.857z" clip-path="url(#a)" fill="#fff" filter="url(#f)"/>
 <path transform="matrix(.05145 .07185 -.06434 .11817 160.94 341.68)" d="m-305.71 558.08c0 34.715-60.761 62.857-135.71 62.857s-135.71-28.142-135.71-62.857 60.761-62.857 135.71-62.857 135.71 28.142 135.71 62.857z" clip-path="url(#a)" fill="#fff" filter="url(#c)"/>
 <path transform="matrix(.77891 -.37544 .39458 .8393 -34.213 162.34)" d="m551.43 606.65c0 108.88-88.264 197.14-197.14 197.14s-197.14-88.264-197.14-197.14 88.264-197.14 197.14-197.14 197.14 88.264 197.14 197.14z" clip-path="url(#g)" fill="none" filter="url(#e)" stroke="#4fbbff" stroke-width="30"/>
 <path transform="matrix(1.0124 -.44374 .83586 1.6169 445.87 -620.63)" d="m-305.71 558.08c0 34.715-60.761 62.857-135.71 62.857s-135.71-28.142-135.71-62.857 60.761-62.857 135.71-62.857 135.71 28.142 135.71 62.857z" clip-path="url(#a)" fill="url(#b)" filter="url(#d)"/>
 <path transform="matrix(.14681 -.16836 .24146 .21056 319.89 266.7)" d="m-305.71 558.08c0 34.715-60.761 62.857-135.71 62.857s-135.71-28.142-135.71-62.857 60.761-62.857 135.71-62.857 135.71 28.142 135.71 62.857z" clip-path="url(#a)" fill="#fff" filter="url(#f)"/>
 <path transform="matrix(.05145 .07185 -.06434 .11817 455.27 415.26)" d="m-305.71 558.08c0 34.715-60.761 62.857-135.71 62.857s-135.71-28.142-135.71-62.857 60.761-62.857 135.71-62.857 135.71 28.142 135.71 62.857z" clip-path="url(#a)" fill="#fff" filter="url(#c)"/>
 <path transform="matrix(.77891 -.37544 .39458 .8393 211.06 -27.75)" d="m551.43 606.65c0 108.88-88.264 197.14-197.14 197.14s-197.14-88.264-197.14-197.14 88.264-197.14 197.14-197.14 197.14 88.264 197.14 197.14z" clip-path="url(#g)" fill="none" filter="url(#e)" stroke="#4fbbff" stroke-width="30"/>
 <path transform="matrix(1.0124 -.44374 .83586 1.6169 691.14 -810.72)" d="m-305.71 558.08c0 34.715-60.761 62.857-135.71 62.857s-135.71-28.142-135.71-62.857 60.761-62.857 135.71-62.857 135.71 28.142 135.71 62.857z" clip-path="url(#a)" fill="url(#b)" filter="url(#d)"/>
 <path transform="matrix(.14681 -.16836 .24146 .21056 565.17 76.607)" d="m-305.71 558.08c0 34.715-60.761 62.857-135.71 62.857s-135.71-28.142-135.71-62.857 60.761-62.857 135.71-62.857 135.71 28.142 135.71 62.857z" clip-path="url(#a)" fill="#fff" filter="url(#f)"/>
 <path transform="matrix(.05145 .07185 -.06434 .11817 700.55 225.17)" d="m-305.71 558.08c0 34.715-60.761 62.857-135.71 62.857s-135.71-28.142-135.71-62.857 60.761-62.857 135.71-62.857 135.71 28.142 135.71 62.857z" clip-path="url(#a)" fill="#fff" filter="url(#c)"/>
</svg>
