<?xml version="1.0" encoding="iso-8859-1"?>
<!-- Generator: Adobe Illustrator 19.0.0, SVG Export Plug-In . SVG Version: 6.00 Build 0)  -->
<svg version="1.1" id="Capa_1" xmlns="http://www.w3.org/2000/svg" xmlns:xlink="http://www.w3.org/1999/xlink" x="0px" y="0px"
	 viewBox="0 0 512.001 512.001" style="enable-background:new 0 0 512.001 512.001;" xml:space="preserve">
<ellipse style="fill:#577C84;" cx="256" cy="274.574" rx="248.396" ry="228.535"/>
<path style="fill:#FFD522;" d="M449.128,8.89c10.173,11.273,16.419,26.158,16.419,42.539c0,35.121-28.47,63.591-63.591,63.591
	c-16.381,0-31.265-6.246-42.539-16.419c8.195,31.766,36.955,55.268,71.281,55.268c40.702,0,73.698-32.995,73.698-73.699
	C504.396,45.845,480.895,17.085,449.128,8.89z"/>
<rect x="414.761" y="393.165" style="fill:#054A93;" width="89.635" height="109.953"/>
<polyline style="fill:#002E70;" points="288.538,503.11 335.196,503.11 446.69,503.11 446.69,316.621 335.196,316.621 "/>
<polyline style="fill:#1462A8;" points="177.044,235.005 177.044,139.206 335.196,139.206 335.196,316.621 335.196,503.11 
	288.538,503.11 229.227,503.11 177.044,503.11 "/>
<rect x="7.604" y="323.827" style="fill:#002C60;" width="89.321" height="179.291"/>
<polygon style="fill:#2C84C6;" points="177.044,139.206 335.196,353.598 335.196,139.206 "/>
<polygon style="fill:#054A93;" points="7.604,323.825 71.075,406.846 71.075,323.825 "/>
<rect x="71.072" y="235.003" style="fill:#002E70;" width="158.152" height="268.105"/>
<polygon style="fill:#054A93;" points="71.075,235.006 229.229,374.912 229.229,235.006 "/>
<path d="M430.698,161.473c44.83,0,81.303-36.472,81.303-81.302c0-37.043-25.073-69.383-60.973-78.644
	c-3.248-0.837-6.665,0.553-8.404,3.424c-1.739,2.87-1.39,6.541,0.859,9.034c9.326,10.334,14.461,23.633,14.461,37.445
	c0,30.872-25.115,55.987-55.987,55.987c-13.813,0-27.111-5.135-37.445-14.461c-2.491-2.248-6.164-2.599-9.034-0.859
	c-2.871,1.739-4.262,5.153-3.424,8.404C361.315,136.4,393.654,161.473,430.698,161.473z M401.955,122.624
	c39.258,0,71.195-31.938,71.195-71.195c0-8.791-1.631-17.415-4.745-25.484c17.396,12.073,28.386,32.12,28.386,54.227
	c0,36.444-29.65,66.094-66.095,66.094c-22.107,0-42.154-10.991-54.226-28.386C384.54,120.992,393.164,122.624,401.955,122.624z"/>
<path d="M504.396,385.556h-50.102v-68.935c0-4.199-3.405-7.604-7.604-7.604H342.8v-74.812c0-4.199-3.405-7.604-7.604-7.604l0,0
	c-4.199,0-7.604,3.405-7.604,7.604v261.302h-39.054h-51.705V235.006c0-4.199-3.405-7.604-7.604-7.604h-44.582V146.81h142.944v51.909
	c0,4.199,3.405,7.604,7.604,7.604l0,0c4.199,0,7.604-3.405,7.604-7.604v-59.513c0-4.199-3.405-7.604-7.604-7.604H177.044
	c-4.199,0-7.604,3.405-7.604,7.604v88.196H71.075c-4.199,0-7.604,3.405-7.604,7.604v81.215H7.604c-4.199,0-7.604,3.405-7.604,7.604
	v179.286c0,4.199,3.405,7.604,7.604,7.604h63.471h158.154c0.007,0,0.013-0.001,0.019-0.001h59.29h46.658h111.476
	c0.007,0,0.013,0.001,0.019,0.001h57.705c4.199,0,7.604-3.405,7.604-7.604V393.16C512,388.961,508.596,385.556,504.396,385.556z
	 M78.679,323.825v-23.959h142.946v35.99H78.679V323.825z M78.679,402.262h18.655c4.199,0,7.604-3.405,7.604-7.604l0,0
	c0-4.199-3.405-7.604-7.604-7.604H78.679v-35.99h142.946v35.99h-88.804c-4.199,0-7.604,3.405-7.604,7.604l0,0
	c0,4.199,3.405,7.604,7.604,7.604h88.804v35.99H78.679V402.262z M221.625,242.61v42.049H78.679V242.61H221.625z M15.208,331.429
	h48.263v164.078H15.208V331.429z M78.679,453.459h142.946v42.048h-44.582v0.001H78.679V453.459z M439.086,495.507H342.8v-21.771
	h76.519c4.199,0,7.604-3.405,7.604-7.604s-3.405-7.604-7.604-7.604H342.8v-22.304h76.519c4.199,0,7.604-3.405,7.604-7.604
	c0-4.199-3.405-7.604-7.604-7.604H342.8v-22.303h76.519c4.199,0,7.604-3.405,7.604-7.604c0-4.199-3.405-7.604-7.604-7.604H342.8
	v-22.303h76.519c4.199,0,7.604-3.405,7.604-7.604s-3.405-7.604-7.604-7.604H342.8v-21.771h96.286V495.507z M496.792,495.508h-42.497
	v-94.743h42.497V495.508z"/>
<path d="M203.655,172.659v22.811c0,4.199,3.405,7.604,7.604,7.604c4.199,0,7.604-3.405,7.604-7.604v-22.811
	c0-4.199-3.405-7.604-7.604-7.604C207.06,165.055,203.655,168.459,203.655,172.659z"/>
<path d="M308.585,172.659c0-4.199-3.405-7.604-7.604-7.604c-4.199,0-7.604,3.405-7.604,7.604v22.811
	c0,4.199,3.405,7.604,7.604,7.604c4.199,0,7.604-3.405,7.604-7.604V172.659z"/>
<path d="M263.725,172.659c0-4.199-3.405-7.604-7.604-7.604c-4.199,0-7.604,3.405-7.604,7.604v22.811
	c0,4.199,3.405,7.604,7.604,7.604c4.199,0,7.604-3.405,7.604-7.604V172.659z"/>
<path d="M308.585,239.19c0-4.199-3.405-7.604-7.604-7.604c-4.199,0-7.604,3.405-7.604,7.604v22.811c0,4.199,3.405,7.604,7.604,7.604
	c4.199,0,7.604-3.405,7.604-7.604V239.19z"/>
<path d="M263.725,239.19c0-4.199-3.405-7.604-7.604-7.604c-4.199,0-7.604,3.405-7.604,7.604v22.811c0,4.199,3.405,7.604,7.604,7.604
	c4.199,0,7.604-3.405,7.604-7.604V239.19z"/>
<path d="M300.981,431.181c-4.199,0-7.604,3.405-7.604,7.604v22.811c0,4.199,3.405,7.604,7.604,7.604
	c4.199,0,7.604-3.405,7.604-7.604v-22.811C308.585,434.586,305.18,431.181,300.981,431.181z"/>
<path d="M256.121,431.181c-4.199,0-7.604,3.405-7.604,7.604v22.811c0,4.199,3.405,7.604,7.604,7.604
	c4.199,0,7.604-3.405,7.604-7.604v-22.811C263.725,434.586,260.32,431.181,256.121,431.181z"/>
<path d="M308.585,372.253c0-4.199-3.405-7.604-7.604-7.604c-4.199,0-7.604,3.405-7.604,7.604v22.811
	c0,4.199,3.405,7.604,7.604,7.604c4.199,0,7.604-3.405,7.604-7.604V372.253z"/>
<path d="M263.725,372.253c0-4.199-3.405-7.604-7.604-7.604c-4.199,0-7.604,3.405-7.604,7.604v22.811
	c0,4.199,3.405,7.604,7.604,7.604c4.199,0,7.604-3.405,7.604-7.604V372.253z"/>
<path d="M308.585,305.722c0-4.199-3.405-7.604-7.604-7.604c-4.199,0-7.604,3.405-7.604,7.604v22.811
	c0,4.199,3.405,7.604,7.604,7.604c4.199,0,7.604-3.405,7.604-7.604V305.722z"/>
<path d="M263.725,305.722c0-4.199-3.405-7.604-7.604-7.604c-4.199,0-7.604,3.405-7.604,7.604v22.811
	c0,4.199,3.405,7.604,7.604,7.604c4.199,0,7.604-3.405,7.604-7.604V305.722z"/>
<path d="M39.34,343.514c-4.199,0-7.604,3.405-7.604,7.604v19.769c0,4.199,3.405,7.604,7.604,7.604s7.604-3.405,7.604-7.604v-19.769
	C46.944,346.919,43.539,343.514,39.34,343.514z"/>
<path d="M39.34,395.98c-4.199,0-7.604,3.405-7.604,7.604v19.769c0,4.199,3.405,7.604,7.604,7.604s7.604-3.405,7.604-7.604v-19.769
	C46.944,399.384,43.539,395.98,39.34,395.98z"/>
<path d="M39.34,448.444c-4.199,0-7.604,3.405-7.604,7.604v19.769c0,4.199,3.405,7.604,7.604,7.604s7.604-3.405,7.604-7.604v-19.769
	C46.944,451.849,43.539,448.444,39.34,448.444z"/>
<path d="M475.544,455.74c4.199,0,7.604-3.405,7.604-7.604v-21.52c0-4.199-3.405-7.604-7.604-7.604s-7.604,3.405-7.604,7.604v21.52
	C467.94,452.335,471.344,455.74,475.544,455.74z"/>
<path d="M57.286,98.347h26.867v26.867c0,4.199,3.405,7.604,7.604,7.604c4.199,0,7.604-3.405,7.604-7.604V98.347h26.867
	c4.199,0,7.604-3.405,7.604-7.604c0-4.199-3.405-7.604-7.604-7.604H99.361V56.271c0-4.199-3.405-7.604-7.604-7.604
	c-4.199,0-7.604,3.405-7.604,7.604v26.867H57.286c-4.199,0-7.604,3.405-7.604,7.604C49.682,94.942,53.087,98.347,57.286,98.347z"/>
<path d="M438.498,272.253c4.199,0,7.604-3.405,7.604-7.604v-26.867h26.867c4.199,0,7.604-3.405,7.604-7.604
	c0-4.199-3.405-7.604-7.604-7.604h-26.867v-26.867c0-4.199-3.405-7.604-7.604-7.604c-4.199,0-7.604,3.405-7.604,7.604v26.867
	h-26.867c-4.199,0-7.604,3.405-7.604,7.604c0,4.199,3.405,7.604,7.604,7.604h26.867v26.867
	C430.894,268.849,434.299,272.253,438.498,272.253z"/>
<path d="M260.788,69.59c2.406,6.142,11.378,6.071,13.982,0.138c1.294-2.948,0.536-6.517-1.854-8.676
	c-2.513-2.27-6.31-2.587-9.171-0.788C260.669,62.2,259.37,66.229,260.788,69.59z"/>
<path d="M35.721,48.299c1.135,2.749,3.854,4.623,6.831,4.699c3.066,0.078,5.92-1.765,7.15-4.561c1.35-3.07,0.46-6.797-2.137-8.92
	c-2.483-2.03-6.056-2.27-8.794-0.604C35.633,40.824,34.289,44.904,35.721,48.299z"/>
<path d="M374.838,60.466c1.208,2.926,4.229,4.856,7.398,4.694c3.043-0.155,5.752-2.182,6.779-5.041
	c1.025-2.851,0.206-6.159-2.045-8.192c-2.517-2.273-6.309-2.581-9.175-0.788C374.719,53.067,373.424,57.115,374.838,60.466z"/>
<path d="M370.874,177.455c-2.879-1.944-6.836-1.589-9.384,0.74c-2.154,1.969-2.958,5.138-2.069,7.905
	c0.979,3.051,3.839,5.199,7.05,5.281c3.225,0.082,6.211-1.966,7.32-4.985C374.997,183.111,373.745,179.417,370.874,177.455z"/>
<path d="M122.062,158.658c-1.809-2.715-5.214-3.95-8.352-3.107c-3.133,0.842-5.405,3.725-5.569,6.953
	c-0.339,6.665,7.86,10.446,12.741,5.965C123.59,165.981,124.126,161.718,122.062,158.658z"/>
<path d="M27.864,201.899c1.205,3.017,4.423,4.94,7.648,4.668c2.921-0.246,5.492-2.214,6.502-4.963
	c2.393-6.51-4.865-12.632-10.878-9.23C27.832,194.244,26.417,198.392,27.864,201.899z"/>
<g>
</g>
<g>
</g>
<g>
</g>
<g>
</g>
<g>
</g>
<g>
</g>
<g>
</g>
<g>
</g>
<g>
</g>
<g>
</g>
<g>
</g>
<g>
</g>
<g>
</g>
<g>
</g>
<g>
</g>
</svg>
