<?xml version='1.0' encoding='utf-8'?>
<svg xmlns="http://www.w3.org/2000/svg" version="1.1" width="720px" height="1358px" viewBox="0 0 720 1358">
<defs><style>
 .change-my-color{fill:#7f8c8d;}
 </style></defs>
  <g id="layer1"> </g> <g id="layer2"> 
  <g style="fill:rgb(0,0,0); fill-opacity:1.0; stroke-linejoin: miter"> 
  <path class="change-my-color" d="M303.3579,584.6922C302.73187,584.82635,301.34564,585.1841,300.22772,585.5418C299.1098,585.89954,296.60562,586.48083,294.59338,586.83856C287.70697,588.0907,282.83282,590.72894,281.26773,593.9486C280.3734,595.87146,280.3734,596.8105,281.22302,598.465C281.84906,599.6276,281.84906,599.85126,281.1336,600.6114C280.73114,601.0586,278.18228,602.7131,275.49927,604.2335C270.5357,607.05066,269.37305,608.258,269.37305,610.5385C269.37305,611.4776,268.88116,611.9248,266.064,613.2663C264.27533,614.1159,262.57608,614.8314,262.35248,614.8314C261.63702,614.8314,256.3604,616.53064,254.61646,617.3355C250.8155,619.0795,248.75854,622.478,249.69759,625.3846C250.10004,626.54724,250.10004,627.4863,249.74231,628.91724C248.71382,633.0312,248.98212,634.01495,251.93343,636.74274L254.61646,639.20215L254.12456,640.9908C253.49854,643.1372,253.85626,645.3283,255.33192,649.03986C256.3604,651.6334,256.62872,651.9464,258.01495,652.2147C260.42966,652.6619,264.4542,651.9912,265.97455,650.8285C267.85266,649.487,269.95438,648.8162,272.50323,648.8162C275.67813,648.8162,276.17,649.3976,275.63342,652.6172C275.40982,654.09283,275.18625,656.597,275.18625,658.2068L275.18625,661.06866L272.59265,663.5728C269.19418,666.7925,267.4502,670.4145,266.42172,676.3619C265.66153,680.6994,265.66153,681.0572,266.42172,685.1711C267.53964,690.9843,267.22662,696.43976,265.70624,699.56995C265.0802,700.7773,264.4095,702.2977,264.2306,702.87897C263.91757,703.9075,264.00702,703.9522,265.3038,703.6839C266.064,703.505,267.27133,702.96844,267.98682,702.4318C270.17795,700.822,270.44626,701.3139,271.38528,708.1109C272.19022,714.3712,272.1455,715.1315,270.8934,720.2291C270.40152,722.06256,272.36908,721.4365,274.96265,718.9771L277.4221,716.6965L277.86926,717.9486C278.13754,718.6193,279.43436,721.3918,280.77585,724.0748C282.83282,728.14404,283.2353,729.3067,283.2353,731.319C283.2353,732.6605,283.41415,733.8678,283.68246,734.00195C283.90604,734.13617,284.62152,733.4654,285.24756,732.4368C285.8736,731.45306,286.54434,730.64813,286.81265,730.64813C287.30453,730.64813,289.1379,733.0182,290.07697,734.8963C290.4347,735.6118,291.06076,737.66876,291.50793,739.4574C291.99982,741.55914,292.4917,742.58765,292.8047,742.4534C293.3413,742.2299,294.45926,739.994,295.08527,737.89233C295.53244,736.4167,296.33734,736.90857,296.82922,738.9655C297.0528,739.9046,297.3211,740.79895,297.41055,740.9331C297.813,741.425,298.43906,739.63635,298.43906,737.937C298.43906,734.3597,299.1545,733.8678,301.03262,736.1037C304.34167,739.994,305.50433,741.9169,305.81732,743.9739C305.9515,745.1365,307.38242,748.6244,308.9475,751.88873C313.24033,760.56384,317.75677,773.9789,318.87466,781.223C319.54544,785.5606,319.54544,786.3208,318.87466,789.8087C318.1592,793.6991,316.5494,797.5894,314.89487,799.3781C314.08997,800.2277,313.55338,800.3172,310.06543,800.3172C306.75638,800.3172,305.6832,800.49603,303.58148,801.4798C299.51224,803.3132,298.17075,805.01245,296.5162,810.4232L295.84546,812.6143L297.0528,813.7769C298.93094,815.5656,302.41885,816.05756,312.39072,816.05756C322.49673,816.05756,323.7488,815.78925,327.1026,812.7484L329.2937,810.7809L333.85483,810.60205C338.72897,810.3785,341.8592,809.3947,344.8105,807.2482C347.40405,805.3702,347.89594,803.71564,348.522,795.13C348.79028,791.10547,349.2375,788.2883,349.8635,786.49963L350.84726,783.81665L347.35934,776.57245L343.87143,769.32837L343.5584,760.8321C343.2454,753.0961,342.93237,750.2342,342.03802,746.65686C341.6803,745.2259,342.2169,744.91284,347.18048,743.7949C351.51804,742.81116,354.69293,742.0063,357.68896,741.1567C367.9291,738.2948,378.57175,736.46136,385.2346,736.46136C389.70627,736.46136,389.7957,736.5061,390.3323,740.2176C390.8242,743.83966,393.73077,749.1163,397.9789,754.1246C400.48303,757.16534,402.58472,759.9378,404.597,762.8891C405.49133,764.1859,406.78812,766.10876,407.45886,767.0925C408.93454,769.1942,412.46716,777.2432,412.46716,778.54004C412.46716,781.7596,405.8938,791.3738,400.52777,796.0243C397.93417,798.2602,396.19022,798.7074,391.9421,798.08136C390.064,797.813,388.00702,797.72363,387.33624,797.8577C384.5191,798.57324,379.37665,805.7726,380.00272,808.0979C380.71817,810.7809,385.59232,811.8541,395.2959,811.45166C398.7391,811.3175,402.4506,811.407,403.47906,811.6305C405.62552,812.12244,409.0687,811.45166,410.41022,810.289C410.85736,809.8866,412.02002,808.50037,413.00378,807.2482C415.91037,803.2685,420.06906,799.0651,424.7643,795.3536C427.22375,793.38605,429.59375,791.3738,430.08563,790.83716C431.96375,788.7355,433.976,785.0687,434.33374,783.10114C434.7809,780.91003,434.5573,780.1498,432.99225,778.1376C432.54507,777.5563,431.5166,775.4546,430.7564,773.44226C429.50433,770.178,429.32547,769.2389,429.28073,765.0802C429.23605,761.1451,429.37015,760.11664,430.17505,758.59625C431.65073,755.7791,431.5166,755.7344,439.65506,761.50287C445.96014,765.97455,449.2692,766.6453,469.57068,767.76324C478.42462,768.21045,482.22556,768.8365,484.9086,770.22266C490.05103,772.86096,490.94534,774.8285,490.90063,783.4142C490.90063,786.7232,490.63235,791.19495,490.31934,793.3414C489.78275,797.0528,489.69327,797.2764,488.0835,798.3496C486.87613,799.1993,485.2216,799.73584,482.40445,800.18304C478.6482,800.76434,478.3352,800.89844,476.81482,802.5978C473.19275,806.62225,472.07483,814.71594,474.9814,815.8339C476.5465,816.4153,485.5346,816.54944,490.94534,816.05756C501.31967,815.0737,500.2465,815.4315,502.43762,812.346C503.4661,810.8256,505.25476,808.54504,506.3727,807.3377C509.3687,804.0287,509.77118,802.8213,509.14514,798.7074C508.38495,793.83325,508.47437,781.7596,509.324,773.8447C510.21835,765.438,510.0395,760.02716,508.7874,757.8808C507.98248,756.49457,507.35648,756.1816,502.57175,754.5718C486.38425,749.0716,475.24973,740.79895,469.25766,729.6197C468.22916,727.69684,467.469,726.04236,467.60312,725.9082C467.73727,725.77405,468.98935,726.1765,470.4203,726.8473C474.0424,728.5018,477.262,728.99365,482.58328,728.7254C486.60782,728.5018,487.45743,728.27826,489.82745,727.0261C495.68536,723.896,498.4578,719.1112,498.4578,712.0907C498.4578,708.6028,498.23422,707.3954,496.80328,703.14734C495.86423,700.41956,492.9129,693.71204,490.27463,688.1671C487.63632,682.62225,484.685,676.18304,483.74594,673.8577C482.0914,669.8332,482.00198,669.3413,482.00198,664.8696C482.00198,660.3085,482.0467,660.0849,483.34348,658.3857C485.311,655.79205,486.16064,655.21075,489.29086,654.3611C491.70554,653.69037,492.42102,653.69037,494.65686,654.18225C498.7261,655.07666,501.05136,656.4628,503.28723,659.4142C504.85233,661.5158,504.85233,661.91833,503.4661,663.7517C499.12857,669.4307,503.2425,680.65466,511.60458,685.93134C515.6738,688.5249,524.66187,690.5371,530.02795,690.08997C533.24756,689.82166,533.73944,689.28503,531.5036,688.39075C530.07263,687.8093,529.7149,687.4964,530.07263,687.04926C530.4304,686.6467,530.2068,686.4232,529.31244,686.2443C527.5685,685.88654,524.9749,684.05316,524.7961,683.0694C524.66187,682.3986,524.7961,682.3092,525.42206,682.5775C525.91394,682.75635,526.7636,683.0247,527.38965,683.1589C528.41815,683.3824,528.3734,683.29297,526.8083,681.41486C524.84076,679.179,522.2472,674.12604,522.64966,673.45526C522.8285,673.2317,522.7391,672.91864,522.5155,672.78455C522.29193,672.60565,521.53174,670.7723,520.86096,668.5811C519.7877,665.22736,519.29584,664.37775,517.2836,662.32074C514.82416,659.8613,514.9583,659.90607,509.63702,659.8166C508.07193,659.77185,507.58005,659.5483,506.50684,658.2068C503.60025,654.5848,499.84402,651.0074,498.01062,650.11304C496.3114,649.2634,495.4618,649.17395,491.2584,649.35284C487.05496,649.487,486.20538,649.66583,484.1931,650.78375C481.06293,652.4831,478.9165,655.47906,477.575,660.04016C476.5465,663.394,476.63596,669.6991,477.70914,672.382C480.21332,678.7766,482.8069,684.7687,484.32724,687.72C488.79895,696.395,490.7665,702.2529,490.81122,707.1719C490.85593,711.1516,490.27463,712.80615,487.8599,715.355C485.62405,717.72504,483.8801,718.351,479.31897,718.351C474.75784,718.351,473.0586,717.8144,467.3348,714.68427C462.81842,712.1801,456.33447,707.1719,455.79785,705.7856C455.0824,703.7734,451.32617,698.54144,449.5375,696.8869C446.8545,694.4722,439.34204,689.6875,433.6183,686.7809C427.3132,683.5613,421.49997,681.6384,416.04453,681.01245C407.86133,680.1181,406.96698,679.84973,402.80832,677.5245C397.80002,674.7074,387.87286,671.3536,376.69363,668.71533C366.09573,666.2111,364.30707,665.54034,359.3882,662.2313C354.33517,658.87756,352.5465,656.73114,351.92047,653.3773C351.60745,651.67816,351.92047,651.6334,354.33517,652.84076C356.07913,653.7351,358.3597,654.0481,358.3597,653.3773C358.3597,653.1985,357.77838,652.4831,357.01822,651.81226C355.27423,650.1577,354.20105,646.4015,353.2173,638.5314C352.41235,632.1815,351.74164,629.45386,350.26596,626.90497C349.46103,625.60815,349.41632,625.2951,349.99765,624.8927C350.31067,624.66907,350.53427,624.2219,350.44482,623.9537C350.35538,623.6853,350.57895,623.1934,350.9814,622.8804C351.9652,622.0755,351.83105,621.53894,350.57895,621.53894C348.92444,621.53894,346.465,620.33154,345.3918,618.99005C344.18445,617.425,344.89993,617.1567,347.0016,618.364C349.46103,619.83966,350.1318,619.48193,347.98538,617.8274C345.30237,615.8152,343.69257,613.1769,341.09897,606.827C339.89163,603.83105,338.19238,600.43256,337.34274,599.2699C335.73297,597.1235,331.9767,594.5299,329.47256,593.85913C328.7124,593.63556,326.92374,592.51764,325.5375,591.39966C322.58618,588.98505,318.06976,586.6597,314.4924,585.58655C311.89883,584.87103,305.32544,584.3345,303.3579,584.6922 Z"/> </g> </g> </svg>