<svg height="511pt" viewBox="0 0 511 511.99887" width="511pt"
 xmlns="http://www.w3.org/2000/svg">
 <defs><style>
 .change-my-color{fill:#7f8c8d;}
 </style></defs>
 <path class="change-my-color" d="m509.65625 480.878906-184.375-313.945312c-3.59375-6.117188-10.152344-9.871094-17.242188-9.871094h-.917968c-7.15625 0-13.765625 3.820312-17.332032 10.023438l-96.542968 167.785156-36.347656-57.96875c-3.71875-5.929688-10.246094-9.460938-17.253907-9.375-6.996093.109375-13.425781 3.867187-16.953125 9.910156l-119.460937 204.480469c-3.613281 6.183593-3.644531 13.828125-.078125 20.039062 3.566406 6.210938 10.179687 10.042969 17.34375 10.042969h364.9375c11.042968 0 19.996094-8.953125 19.996094-19.996094 0-11.046875-8.953126-20-19.996094-20h-224.953125l147.269531-255.949218 167.421875 285.074218c5.59375 9.523438 17.847656 12.707032 27.367187 7.117188 9.523438-5.59375 12.710938-17.84375 7.117188-27.367188zm-454.320312-8.871094 85.222656-145.875 30.097656 48-56.316406 97.875zm-18.355469-266.527343c14.316406 13.796875 31.277343 23.515625 50.417969 28.890625 11.382812 3.542968 22.039062 4.671875 31.347656 4.671875 7.941406 0 14.90625-.824219 20.507812-1.679688.078125-.011719.15625-.023437.234375-.035156 12.796875-2.113281 25.390625-6.296875 36.429688-12.105469 10.929687-5.75 16.527343-17.726562 13.929687-29.800781-2.609375-12.125-12.683594-20.777344-25.070312-21.527344-15.308594-.925781-26.246094-6.1875-39.011719-18.765625-2.21875-2.183594-4.160156-4.550781-5.769531-7.03125-11.292969-17.398437-11.3125-39.859375-.042969-57.222656 1.558594-2.410156 3.429687-4.699219 5.5625-6.8125 14.425781-14.300781 26.011719-17.699219 38.972656-18.40625 12.464844-.679688 22.640625-9.328125 25.328125-21.515625 2.679688-12.175781-2.917968-24.285156-13.933594-30.132813-45.785156-24.300781-101.621093-16.46875-138.9375 19.492188-23.503906 22.644531-36.445312 53.167969-36.445312 85.957031 0 32.804688 12.957031 63.355469 36.480469 86.023438zm27.710937-143.183594c14.371094-13.84375 32.855469-21.421875 51.792969-22.214844-6.539063 4.199219-12.855469 9.367188-19.121094 15.574219-4.160156 4.125-7.851562 8.652344-10.964843 13.453125-19.84375 30.589844-19.824219 70.140625.050781 100.761719 3.183593 4.90625 6.96875 9.535156 11.246093 13.746094 6.214844 6.121093 12.453126 11.238281 18.875 15.421874-6.164062-.164062-11.804687-1.128906-17.496093-2.917968-.214844-.066406-.429688-.132813-.644531-.191406-12.800782-3.558594-24.140626-10.035157-33.699219-19.246094-15.628907-15.0625-24.238281-35.382813-24.238281-57.226563 0-21.824219 8.59375-42.121093 24.199218-57.160156zm0 0"/></svg>