<?xml version="1.0" encoding="iso-8859-1"?>
<!-- Generator: Adobe Illustrator 19.0.0, SVG Export Plug-In . SVG Version: 6.00 Build 0)  -->
<svg version="1.1" id="Capa_1" xmlns="http://www.w3.org/2000/svg" xmlns:xlink="http://www.w3.org/1999/xlink" x="0px" y="0px"
	 viewBox="0 0 512 512" style="enable-background:new 0 0 512 512;" xml:space="preserve">
<path style="fill:#E5E6E6;" d="M511.081,501.8c-1.8,5.999-7.499,10.199-14.097,10.199H15.056c-5.399,0-10.497-2.999-13.198-7.799
	c-2.701-4.798-2.401-10.497,0.601-15.298l139.279-222.666c9.299-14.7,23.396-25.797,39.895-31.196l46.493-15.597l-13.198-13.498
	c-10.497-10.199-14.998-24.296-12.597-38.994c2.399-14.399,11.098-26.396,24.296-32.996l22.797-11.398h58.189
	c7.499,3.899,10.499,12.898,6.9,20.096l-5.399,10.799c-3.001,5.699-1.8,12.597,2.699,17.396l45.293,45.293
	c10.497,10.199,14.998,24.296,12.597,38.994c-2.399,14.399-11.098,26.396-24.296,32.996l-39.294,19.496
	c-6.598,3.601-8.098,9.599-8.098,12.299c-0.3,2.401-0.3,8.698,5.699,13.198l202.269,151.876
	C511.081,488.902,513.181,495.502,511.081,501.8z"/>
<g>
	<path style="fill:#b7b8b8;" d="M511.081,501.8c-1.8,5.999-7.499,10.199-14.097,10.199H256.02V122.558h51.591
		c7.499,3.899,10.499,12.898,6.9,20.096l-5.399,10.799c-3.001,5.699-1.8,12.597,2.699,17.396l45.293,45.293
		c10.497,10.199,14.998,24.296,12.597,38.994c-2.399,14.399-11.098,26.396-24.296,32.996l-39.294,19.496
		c-6.598,3.601-8.098,9.599-8.098,12.299c-0.3,2.401-0.3,8.698,5.699,13.198l202.269,151.876
		C511.081,488.902,513.181,495.502,511.081,501.8z"/>
	<path style="fill:#b7b8b8;" d="M166.033,451.009h-29.996c-8.29,0-14.998-6.708-14.998-14.998s6.708-14.998,14.998-14.998h29.996
		c8.29,0,14.998,6.708,14.998,14.998S174.323,451.009,166.033,451.009z"/>
	<path style="fill:#b7b8b8;" d="M226.024,331.027h-29.996c-8.29,0-14.998-6.708-14.998-14.998c0-8.29,6.708-14.998,14.998-14.998
		h29.996c8.29,0,14.998,6.708,14.998,14.998C241.022,324.319,234.314,331.027,226.024,331.027z"/>
	<path style="fill:#b7b8b8;" d="M226.024,391.018h-59.991c-8.29,0-14.998-6.708-14.998-14.998c0-8.29,6.708-14.998,14.998-14.998
		h59.991c8.29,0,14.998,6.708,14.998,14.998C241.022,384.31,234.314,391.018,226.024,391.018z"/>
</g>
<path style="fill:#476264;" d="M348.406,99.461l-32.396,51.591H15.055c-6.598,0-12.297-4.199-14.397-10.497
	c-1.8-6.6,0.599-13.198,5.998-17.097L187.629,2.475c5.1-3.301,11.698-3.301,16.8,0l51.591,34.494L348.406,99.461z"/>
<g>
	<path style="fill:#597173;" d="M451.991,346.024v29.996c0,8.4-6.598,14.998-14.998,14.998s-14.998-6.598-14.998-14.998v-29.996
		c0-8.4,6.598-14.998,14.998-14.998S451.991,337.625,451.991,346.024z"/>
</g>
<path style="fill:#476264;" d="M451.991,346.024v29.996c0,8.4-6.598,14.998-14.998,14.998v-59.991
	C445.393,331.027,451.991,337.625,451.991,346.024z"/>
<path style="fill:#A9AFB0;" d="M436.993,241.04c-30.896,0-44.993,57.59-44.993,74.989c0,24.897,20.096,44.993,44.993,44.993
	s44.993-20.096,44.993-44.993C481.986,298.63,467.889,241.04,436.993,241.04z"/>
<path style="fill:#878c8c;" d="M481.986,316.029c0,24.897-20.096,44.993-44.993,44.993V241.04
	C467.889,241.04,481.986,298.63,481.986,316.029z"/>
<path style="fill:#597173;" d="M60.049,286.033v29.996c0,8.4-6.598,14.998-14.998,14.998s-14.998-6.598-14.998-14.998v-29.996
	c0-8.4,6.598-14.998,14.998-14.998S60.049,277.634,60.049,286.033z"/>
<path style="fill:#476264;" d="M60.049,286.033v29.996c0,8.4-6.598,14.998-14.998,14.998v-59.991
	C53.451,271.035,60.049,277.634,60.049,286.033z"/>
<path style="fill:#A9AFB0;" d="M45.051,181.049c-30.896,0-44.993,57.59-44.993,74.989c0,24.897,20.096,44.993,44.993,44.993
	s44.993-20.096,44.993-44.993C90.044,238.639,75.947,181.049,45.051,181.049z"/>
<path style="fill:#878c8c;" d="M90.044,256.038c0,24.897-20.096,44.993-44.993,44.993V181.049
	C75.947,181.049,90.044,238.639,90.044,256.038z"/>
<polygon style="fill:#384e50;" points="348.406,99.461 316.011,151.053 256.02,151.053 256.02,36.969 "/>
<path style="fill:#b7b8b8;" d="M331.009,436.011c0,8.4-6.598,14.998-14.998,14.998H256.02c-8.4,0-14.998-6.598-14.998-14.998
	s6.598-14.998,14.998-14.998h59.991C324.411,421.013,331.009,427.611,331.009,436.011z"/>
<path style="fill:#898a8a;" d="M331.009,436.011c0,8.4-6.598,14.998-14.998,14.998H256.02v-29.996h59.991
	C324.411,421.013,331.009,427.611,331.009,436.011z"/>
<path style="fill:#597173;" d="M496.984,151.053c5.999,0,11.398-3.599,13.799-9.299c2.399-5.699,1.199-11.999-3.301-16.197
	l-89.987-89.987c-5.699-5.999-15.296-5.999-20.996,0L280.015,151.053H496.984z"/>
<g>
</g>
<g>
</g>
<g>
</g>
<g>
</g>
<g>
</g>
<g>
</g>
<g>
</g>
<g>
</g>
<g>
</g>
<g>
</g>
<g>
</g>
<g>
</g>
<g>
</g>
<g>
</g>
<g>
</g>
</svg>
