<svg id="Layer_1" height="512" viewBox="0 0 128 128" width="512" xmlns="http://www.w3.org/2000/svg" data-name="Layer 1"><path d="m82.44 73.35v19.32h-36.88v-19.32c0-50.14 18.44-66.85 18.44-66.85s18.44 16.71 18.44 66.85z" fill="#3b70a8"/><path d="m27.167 112.817v-53.29c0-29.68 9.2-39.574 9.2-39.574s9.2 9.894 9.2 39.574v53.29z" fill="#4482c3"/><path d="m27.167 112.817h9.196 9.197l2.253 8.683h-11.45-11.449z" fill="#3b70a8"/><path d="m100.833 112.817v-53.29c0-29.68-9.2-39.574-9.2-39.574s-9.2 9.894-9.2 39.574v53.29z" fill="#4482c3"/><path d="m100.833 112.817h-9.196-9.197l-2.252 8.683h11.449 11.449z" fill="#3b70a8"/><path d="m107.75 100.3v5.88h-43.75s.81-40.74 1.61-47.53c8.5 23.17 27.04 27.05 35.22 30.38a11.69 11.69 0 0 1 6.79 9.39 12.9 12.9 0 0 1 .13 1.88z" fill="#e8e8e8"/><path d="m107.75 100.3v1.62h-17.5a1.75 1.75 0 0 1 0-3.5h17.37a12.9 12.9 0 0 1 .13 1.88z" fill="#cdcdcd"/><path d="m64 106.18h-43.75v-5.88a12.9 12.9 0 0 1 .13-1.88 11.69 11.69 0 0 1 6.79-9.39c8.18-3.33 26.72-7.21 35.22-30.38.8 6.79 1.61 47.53 1.61 47.53z" fill="#e8e8e8"/><path d="m39.5 100.17a1.746 1.746 0 0 1 -1.75 1.75h-17.5v-1.62a12.9 12.9 0 0 1 .13-1.88h17.37a1.752 1.752 0 0 1 1.75 1.75z" fill="#cdcdcd"/><path d="m73.2 106.176v-38.276c0-29.681-9.2-39.574-9.2-39.574s-9.2 9.889-9.2 39.574v38.28z" fill="#cdcdcd"/><path d="m67 59.281h-6a1.75 1.75 0 0 1 0-3.5h6a1.75 1.75 0 0 1 0 3.5z" fill="#e8e8e8"/><path d="m69.656 95.922a5.656 5.656 0 0 0 -5.656 5.656 5.656 5.656 0 1 0 -11.312 0v12.536h22.625v-12.536a5.656 5.656 0 0 0 -5.657-5.656z" fill="#f3ba33"/><path d="m64 123.25a1.751 1.751 0 0 1 -1.75-1.75v-32.167a1.75 1.75 0 0 1 3.5 0v32.167a1.751 1.751 0 0 1 -1.75 1.75z" fill="#e8e8e8"/></svg>