<?xml version="1.0" encoding="iso-8859-1"?>
<!-- Generator: Adobe Illustrator 19.0.0, SVG Export Plug-In . SVG Version: 6.00 Build 0)  -->
<svg version="1.1" id="Capa_1" xmlns="http://www.w3.org/2000/svg" xmlns:xlink="http://www.w3.org/1999/xlink" x="0px" y="0px"
	 viewBox="0 0 512 512" style="enable-background:new 0 0 512 512;" xml:space="preserve">
<path style="fill:#8B4330;" d="M210,421H30V90c0-49.706,40.294-90,90-90l0,0c49.706,0,90,40.294,90,90V421z"/>
<path style="fill:#1DE8F1;" d="M392,60v301H150V105c0-24.901,20.099-45,45-45H392z"/>
<rect x="241" y="60" style="fill:#1BD9DE;" width="151" height="301"/>
<path style="fill:#763220;" d="M482,421H332V75c0-41.421,33.579-75,75-75l0,0c41.421,0,75,33.579,75,75V421z"/>
<path style="fill:#B25C4A;" d="M60,225c0-3.021,0-48.021,0-45c0-16.5-13.5-30-30-30c-16.125,0-30,13.184-30,30
	c0,4.737,0,233.955,0,226c0,8.399,6.599,15,15,15h75V285C90,261.299,78.6,239.099,60,225z"/>
<path style="fill:#B7E0F6;" d="M195,180c-8.291,0-15-6.709-15-15v-30c0-8.291,6.709-15,15-15s15,6.709,15,15v30
	C210,173.291,203.291,180,195,180z"/>
<path style="fill:#A4D9F5;" d="M286,301.494c-8.291,0-15-6.709-15-15V225c0-8.291,6.709-15,15-15s15,6.709,15,15v61.494
	C301,294.785,294.291,301.494,286,301.494z"/>
<path style="fill:#1DE8F1;" d="M45,482H15c-8.291,0-15-6.709-15-15s6.709-15,15-15h30c8.291,0,15,6.709,15,15S53.291,482,45,482z"/>
<path style="fill:#1BD9DE;" d="M407,512h-30c-8.291,0-15-6.709-15-15s6.709-15,15-15h30c8.291,0,15,6.709,15,15S415.291,512,407,512
	z"/>
<path style="fill:#1DE8F1;" d="M195,512h-90c-8.291,0-15-6.709-15-15s6.709-15,15-15h90c8.291,0,15,6.709,15,15S203.291,512,195,512
	z"/>
<g>
	<path style="fill:#1BD9DE;" d="M317,482h-61c-8.291,0-15-6.709-15-15s6.709-15,15-15h61c8.291,0,15,6.709,15,15
		S325.291,482,317,482z"/>
	<path style="fill:#1BD9DE;" d="M497,482h-60c-8.291,0-15-6.709-15-15s6.709-15,15-15h60c8.291,0,15,6.709,15,15
		S505.291,482,497,482z"/>
</g>
<path style="fill:#8B4330;" d="M467,90c-24.853,0-45,20.147-45,45v30.383c-18.104,13.705-30,35.213-30,59.617v196h105
	c8.284,0,15-6.716,15-15V135C512,110.147,491.853,90,467,90z"/>
<path style="fill:#CAE8F9;" d="M392,421H90c0-40.8,27.299-75.7,64.2-86.8c11.1-36.901,46-64.2,86.8-64.2s75.7,27.299,86.8,64.2
	C364.701,345.3,392,380.2,392,421z"/>
<path style="fill:#B7E0F6;" d="M392,421H241V270c40.8,0,75.7,27.299,86.8,64.2C364.701,345.3,392,380.2,392,421z"/>
<g>
</g>
<g>
</g>
<g>
</g>
<g>
</g>
<g>
</g>
<g>
</g>
<g>
</g>
<g>
</g>
<g>
</g>
<g>
</g>
<g>
</g>
<g>
</g>
<g>
</g>
<g>
</g>
<g>
</g>
</svg>
